<svg xmlns="http://www.w3.org/2000/svg" width="137.667" height="130.332" viewBox="0 0 137.667 130.332">
  <g id="Group_71" data-name="Group 71" transform="translate(0.2 0.2)">
    <path id="Path_108" data-name="Path 108" d="M309.452,273.658a4.62,4.62,0,1,1,4.975-4.607,2.267,2.267,0,1,0,4.523,0,9.472,9.472,0,0,0-7.237-9.173v-1.258a2.267,2.267,0,1,0-4.523,0v1.258a9.44,9.44,0,0,0,2.262,18.618,4.62,4.62,0,1,1-4.975,4.607,2.267,2.267,0,1,0-4.523,0,9.471,9.471,0,0,0,7.237,9.173v1.045a2.267,2.267,0,1,0,4.523,0v-1.045a9.439,9.439,0,0,0-2.262-18.618Z" transform="translate(-217.515 -189.647)" fill="#8d74ab" stroke="#8c73aa" stroke-width="0.4"/>
    <path id="Path_109" data-name="Path 109" d="M309.452,273.658a4.62,4.62,0,1,1,4.975-4.607,2.267,2.267,0,1,0,4.523,0,9.472,9.472,0,0,0-7.237-9.173v-1.258a2.267,2.267,0,1,0-4.523,0v1.258a9.44,9.44,0,0,0,2.262,18.618,4.62,4.62,0,1,1-4.975,4.607,2.267,2.267,0,1,0-4.523,0,9.471,9.471,0,0,0,7.237,9.173v1.045a2.267,2.267,0,1,0,4.523,0v-1.045a9.439,9.439,0,0,0-2.262-18.618Z" transform="translate(-217.515 -189.647)" fill="#8d74ab" stroke="#8c73aa" stroke-width="0.4"/>
    <path id="Path_110" data-name="Path 110" d="M399.2,232.42a30.212,30.212,0,0,0-12.036-11.4,2.2,2.2,0,0,0-3.018,1.132,2.5,2.5,0,0,0,1.058,3.229c8.574,4.409,14.113,13.829,14.113,24a28.16,28.16,0,0,1-2.9,12.482,2.506,2.506,0,0,0,.934,3.272,2.137,2.137,0,0,0,1.06.284,2.244,2.244,0,0,0,2-1.283,33.389,33.389,0,0,0-1.21-31.72Z" transform="translate(-282.495 -162.799)" fill="#8d74ab" stroke="#8c73aa" stroke-width="0.4"/>
    <path id="Path_111" data-name="Path 111" d="M399.2,232.42a30.212,30.212,0,0,0-12.036-11.4,2.2,2.2,0,0,0-3.018,1.132,2.5,2.5,0,0,0,1.058,3.229c8.574,4.409,14.113,13.829,14.113,24a28.16,28.16,0,0,1-2.9,12.482,2.506,2.506,0,0,0,.934,3.272,2.137,2.137,0,0,0,1.06.284,2.244,2.244,0,0,0,2-1.283,33.389,33.389,0,0,0-1.21-31.72Z" transform="translate(-282.495 -162.799)" fill="#8d74ab" stroke="#8c73aa" stroke-width="0.4"/>
    <path id="Path_112" data-name="Path 112" d="M349.414,209h-.152a2.425,2.425,0,0,0,0,4.839h.142a2.425,2.425,0,0,0,.011-4.839Z" transform="translate(-253.922 -153.867)" fill="#8d74ab" stroke="#8c73aa" stroke-width="0.4"/>
    <path id="Path_113" data-name="Path 113" d="M349.414,209h-.152a2.425,2.425,0,0,0,0,4.839h.142a2.425,2.425,0,0,0,.011-4.839Z" transform="translate(-253.922 -153.867)" fill="#8d74ab" stroke="#8c73aa" stroke-width="0.4"/>
    <path id="Path_114" data-name="Path 114" d="M230.638,312.749c-8.573-4.409-14.113-13.83-14.113-24a28.161,28.161,0,0,1,2.9-12.482A2.506,2.506,0,0,0,218.49,273a2.189,2.189,0,0,0-3.059,1,33.389,33.389,0,0,0,1.211,31.72,30.212,30.212,0,0,0,12.036,11.4,2.134,2.134,0,0,0,.978.239,2.254,2.254,0,0,0,2.04-1.371A2.5,2.5,0,0,0,230.638,312.749Z" transform="translate(-149.451 -202.163)" fill="#8d74ab" stroke="#8c73aa" stroke-width="0.4"/>
    <path id="Path_115" data-name="Path 115" d="M230.638,312.749c-8.573-4.409-14.113-13.83-14.113-24a28.161,28.161,0,0,1,2.9-12.482A2.506,2.506,0,0,0,218.49,273a2.189,2.189,0,0,0-3.059,1,33.389,33.389,0,0,0,1.211,31.72,30.212,30.212,0,0,0,12.036,11.4,2.134,2.134,0,0,0,.978.239,2.254,2.254,0,0,0,2.04-1.371A2.5,2.5,0,0,0,230.638,312.749Z" transform="translate(-149.451 -202.163)" fill="#8d74ab" stroke="#8c73aa" stroke-width="0.4"/>
    <path id="Path_116" data-name="Path 116" d="M318.781,449h-.131a2.425,2.425,0,0,0-.02,4.839h.152a2.425,2.425,0,0,0,0-4.838Z" transform="translate(-230.224 -335.801)" fill="#8d74ab" stroke="#8c73aa" stroke-width="0.4"/>
    <path id="Path_117" data-name="Path 117" d="M318.781,449h-.131a2.425,2.425,0,0,0-.02,4.839h.152a2.425,2.425,0,0,0,0-4.838Z" transform="translate(-230.224 -335.801)" fill="#8d74ab" stroke="#8c73aa" stroke-width="0.4"/>
    <path id="Path_106" data-name="Path 106" d="M103.864,47.21a11.641,11.641,0,0,0-1.191-2.1h6.98A12.1,12.1,0,0,0,121.985,33.3a12.1,12.1,0,0,0-12.333-11.812H88.183a11.4,11.4,0,0,0,2.166-6.676A12.1,12.1,0,0,0,78.017,3H12.333A12.1,12.1,0,0,0,0,14.812,12.1,12.1,0,0,0,12.333,26.624H33.8a11.371,11.371,0,0,0,0,13.353H26.81A12.1,12.1,0,0,0,14.477,51.788a11.619,11.619,0,0,0,4.669,9.244,11.486,11.486,0,0,0,0,18.488,11.486,11.486,0,0,0,0,18.488,11.619,11.619,0,0,0-4.669,9.244A12.1,12.1,0,0,0,26.81,119.065h31.6A46.4,46.4,0,0,0,91.69,132.932c25.131,0,45.577-19.583,45.577-43.653C137.267,69.245,123.1,52.323,103.864,47.21Zm5.789-20.586a6.683,6.683,0,1,1,0,13.353H43.968a6.683,6.683,0,1,1,0-13.353Zm-97.32-5.136a6.836,6.836,0,0,1-6.971-6.676,6.836,6.836,0,0,1,6.971-6.676H78.017a6.836,6.836,0,0,1,6.971,6.676,6.836,6.836,0,0,1-6.971,6.676ZM26.81,45.112H92.494a7.221,7.221,0,0,1,3.042.671c-1.268-.1-2.55-.157-3.846-.157A46.457,46.457,0,0,0,59.438,58.465H26.81a6.683,6.683,0,1,1,0-13.353Zm0,18.488H54.857a42.82,42.82,0,0,0-6.891,13.353H26.81a6.683,6.683,0,1,1,0-13.353Zm0,18.488H46.735a41.867,41.867,0,0,0-.165,13.353H26.81a6.683,6.683,0,1,1,0-13.353Zm0,31.841a6.683,6.683,0,1,1,0-13.353H47.664A42.655,42.655,0,0,0,54.1,113.93ZM91.69,127.8c-22.174,0-40.215-17.279-40.215-38.517S69.515,50.762,91.69,50.762,131.9,68.04,131.9,89.279,113.864,127.8,91.69,127.8Z" transform="translate(0 -3)" fill="#8d74ab" stroke="#8c73aa" stroke-width="0.4"/>
  </g>
</svg>
