<svg xmlns="http://www.w3.org/2000/svg" width="126.607" height="114.831" viewBox="0 0 126.607 114.831">
  <path id="flower" d="M125.519,157.5h0a46.961,46.961,0,0,0-12.173-10.633c8.432-11.285,11.728-24.843,11.728-27.009a4.438,4.438,0,0,0-2.833-4.392,42.49,42.49,0,0,0-18.535-1.74q.343-2.113.579-4.262a80.273,80.273,0,0,0-1.393-25.912c-.552-2.511-2.646-3.815-4.544-3.2A51.647,51.647,0,0,0,79.088,91.986,71.219,71.219,0,0,0,65.927,66.744a3.262,3.262,0,0,0-5.247,0A71.211,71.211,0,0,0,47.518,91.986,51.647,51.647,0,0,0,28.259,80.354c-1.979-.645-4.012.785-4.542,3.195a80.273,80.273,0,0,0-.817,30.174A42.488,42.488,0,0,0,4.378,115.46a4.436,4.436,0,0,0-2.845,4.4c0,1.643,2.9,15.188,11.729,27.006A46.949,46.949,0,0,0,1.087,157.5a5.244,5.244,0,0,0,0,6.393c8.659,10.55,20.173,16.36,32.419,16.36,11.048,0,21.5-4.73,29.8-13.4,8.3,8.672,18.749,13.4,29.8,13.4,12.21,0,23.692-5.776,32.343-16.268a5.232,5.232,0,0,0,.077-6.484Zm-23.964-34.294a36.206,36.206,0,0,1,15.058,0c-3.5,11.73-10.213,21.494-19.192,27.81A38,38,0,0,1,77.887,158.1a62.617,62.617,0,0,0,19.546-24.046,74.252,74.252,0,0,0,4.122-10.846Zm-91.563,0a36.207,36.207,0,0,1,15.057,0,74.2,74.2,0,0,0,4.122,10.846A62.614,62.614,0,0,0,48.717,158.1a38.011,38.011,0,0,1-19.535-7.085C20.206,144.7,13.5,134.935,9.992,123.2Zm23.513,48.011c-8.953,0-17.439-3.7-24.278-10.52a37.092,37.092,0,0,1,9.9-7.131,52.09,52.09,0,0,0,6.347,5.277,44.67,44.67,0,0,0,23.747,8.307,32.6,32.6,0,0,1-15.715,4.066ZM35.6,129.532a68.155,68.155,0,0,1-5.565-39.041,46.449,46.449,0,0,1,15.29,10.986,83.317,83.317,0,0,0-1.156,13.841,80.73,80.73,0,0,0,7.608,34.47A54.357,54.357,0,0,1,35.6,129.532ZM63.3,154.047c-10.756-15.331-11.719-32.034-11.719-38.73s.964-23.4,11.719-38.73c10.754,15.328,11.719,32.026,11.719,38.73S74.056,138.72,63.3,154.047Zm19.137-38.73a83.321,83.321,0,0,0-1.156-13.841A46.451,46.451,0,0,1,96.575,90.49a68.169,68.169,0,0,1-5.566,39.042,54.351,54.351,0,0,1-16.177,20.255A80.741,80.741,0,0,0,82.439,115.317Zm10.66,55.9a32.6,32.6,0,0,1-15.715-4.066,44.677,44.677,0,0,0,23.746-8.307,52.063,52.063,0,0,0,6.347-5.278,37.111,37.111,0,0,1,9.9,7.131C110.538,167.508,102.053,171.213,93.1,171.213Z" transform="translate(0 -65.42)" fill="#8d74ab" opacity="0.88"/>
</svg>
