<svg xmlns="http://www.w3.org/2000/svg" width="146.52" height="133.04" viewBox="0 0 146.52 133.04">
  <path id="Path_105" data-name="Path 105" d="M138.361,53.456H113.583a7.616,7.616,0,0,0-7.755,7.451V88.294H96.56a19.663,19.663,0,0,0,.581-6.387h0c-.2-10.43-2.172-19.221-5.858-26.127a28.366,28.366,0,0,0-9.069-10.5,18.643,18.643,0,0,0,5.31-13.5,18.162,18.162,0,0,0-36.316,0,2.1,2.1,0,0,0,2.14,2.055H54.8a13.911,13.911,0,0,0-.205,2.369,14.432,14.432,0,0,0,11.94,13.98,33.334,33.334,0,0,0-1.065,8.941l-5.338,4.409L47.144,64.547,32.161,59.79c-1.373-.438-2.93-.934-4.28,0a3.575,3.575,0,0,0-1.331,3.067v10.7a2.1,2.1,0,0,0,2.14,2.055h2.548L27.33,88.581a2.045,2.045,0,0,0,1.461,2.546,2.153,2.153,0,0,0,2.651-1.4L35.7,75.611H41.78c-7.568,22.163-3.25,36.957,3.388,51.929H41.321L25.3,110.333l3.389-11.242a2.044,2.044,0,0,0-1.461-2.546,2.155,2.155,0,0,0-2.651,1.4L21.331,108.7C11.307,108.541,2.34,115.178.055,124.727a2.055,2.055,0,0,0,1.606,2.463l3.038.671A15.836,15.836,0,0,0,17.33,144.7a17.126,17.126,0,0,0,3.7.406,16.759,16.759,0,0,0,8.661-2.406,15.77,15.77,0,0,0,6.655-7.843l2.4.53a2.9,2.9,0,0,0,2.069-.111A2.37,2.37,0,0,0,42.02,133.7a19.7,19.7,0,0,0,.345-2.047H87.129a18.36,18.36,0,0,0,36.1,0h1.634l.4,0a3.007,3.007,0,0,0,2.222-.774,2.579,2.579,0,0,0,.757-2,22.444,22.444,0,0,0-.877-5.568c1.7-9.939.065-15.993-2.367-20.73a5.362,5.362,0,0,0,2.557-4.529V92.4h10.811a7.616,7.616,0,0,0,7.755-7.451V60.907a7.615,7.615,0,0,0-7.754-7.451ZM27.42,139.216a12.426,12.426,0,0,1-9.129,1.477h0a11.728,11.728,0,0,1-9.376-11.9l23.217,5.131a11.7,11.7,0,0,1-4.712,5.288Zm10.71-8.185L4.836,123.674A17.256,17.256,0,0,1,21.877,112.83l16.31,17.512Q38.165,130.689,38.13,131.031Zm32.33-35.817c-.621,1.574-.621,3.514-.621,6.2v7.756H62V98.529C62,86.5,68.838,84.354,71.906,84H92.89c-.084,2.73-.726,4.671-1.944,5.9-1.419,1.435-3.848,2.135-7.426,2.138l-7.683.008c-2.74,0-4.549,1.065-5.378,3.165Zm-.621,18.066v4.908H54.575a5.738,5.738,0,0,1,1.475-3.515,5.412,5.412,0,0,1,3.81-1.393ZM92.8,79.89H73.331a74.294,74.294,0,0,1-2.052-7.607L77.2,68.594c3.231-2.015,4.911-4.861,4.611-7.81a7.314,7.314,0,0,0-4.715-5.949,8,8,0,0,0-7.184.76,23.416,23.416,0,0,1,1.034-5.211,15.639,15.639,0,0,0,2.708-.513,18.165,18.165,0,0,0,5-1.9C82.77,50.335,91.837,58.006,92.8,79.89ZM55.645,29.728a13.893,13.893,0,0,1,27.6,2.055c0,6.132-3.062,11.074-8,13.248V34.217c0-1.873-.746-4.17-4.3-4.48q-.1-.009-.194-.009Zm3.233,6.479a9.849,9.849,0,0,1,.285-2.369h11.48c.132.014.229.028.3.042a2.347,2.347,0,0,1,.021.336V46.241a11.022,11.022,0,0,1-1.536.109h-.014A10.361,10.361,0,0,1,58.878,36.208ZM56.1,67.976l5.07-.394a2.188,2.188,0,0,0,1.224-.49l9.149-7.557h0A4.345,4.345,0,0,1,74.3,58.426a3.34,3.34,0,0,1,1.205.225,3.14,3.14,0,0,1,2.046,2.533c.141,1.389-.811,2.8-2.681,3.963L64.671,71.5H56.1V67.976Zm-9.046.7,4.765-.37V71.5H46.286c-.718,0-.893-.573-.913-1.053A1.649,1.649,0,0,1,47.058,68.678Zm-5.066-1.419a5.828,5.828,0,0,0-.9,3.357,5.739,5.739,0,0,0,.108.868c0,.006,0,.012,0,.017H30.831V63.7L42,67.243c0,.005-.005.011-.008.016ZM46.3,75.612H65.3a2.2,2.2,0,0,0,1.165-.331l.969-.6c.466,1.978,1,3.9,1.575,5.721C64.648,81.635,57.72,85.634,57.72,98.528v10.847a9.057,9.057,0,0,0-4.764,2.457,9.821,9.821,0,0,0-2.676,6.355H45.962C41.611,106.146,39.956,93.333,46.3,75.612Zm3.528,51.921c-.791-1.747-1.554-3.488-2.272-5.235H69.778c2.88,0,4.341-1.259,4.341-3.742V103.468H91.013a2.057,2.057,0,1,0,0-4.111H74.134a8.956,8.956,0,0,1,.328-2.686c.108-.274.2-.511,1.377-.511l7.685-.008c4.813,0,8.256-1.123,10.526-3.419.105-.106.2-.218.3-.329H123.27v5.649a1.347,1.347,0,0,1-1.354,1.3H100.608a2.057,2.057,0,1,0,0,4.111h20.05a23.508,23.508,0,0,1,3.123,12.7A23.847,23.847,0,0,0,88.4,113.511a22.262,22.262,0,0,0-6.729,14.029Zm55.352,15a13.968,13.968,0,0,1-13.7-10.879h27.4A13.969,13.969,0,0,1,105.178,142.53Zm16.131-14.99H85.973a19.164,19.164,0,0,1,37.153-3.477c.008.024.015.048.024.072a18.311,18.311,0,0,1,.706,3.405Zm20.526-42.586a3.413,3.413,0,0,1-3.474,3.34H110.109V77.68h31.726Zm0-11.385H110.109V69.2h31.726Zm0-8.482H110.109v-4.18a3.413,3.413,0,0,1,3.474-3.34h24.778a3.413,3.413,0,0,1,3.474,3.34Z" transform="translate(0.205 -13.8)" fill="#8d74ab" stroke="#8d74ab" stroke-width="0.4"/>
</svg>
